<svg width="32" height="32" viewBox="0 0 32 32" fill="none" xmlns="http://www.w3.org/2000/svg">
<path fill-rule="evenodd" clip-rule="evenodd" d="M16 25.8462C16.3264 25.8462 16.6395 25.9758 16.8703 26.2066C17.1011 26.4375 17.2308 26.7505 17.2308 27.0769V30.7692C17.2308 31.0957 17.1011 31.4087 16.8703 31.6395C16.6395 31.8703 16.3264 32 16 32C15.6736 32 15.3605 31.8703 15.1297 31.6395C14.8989 31.4087 14.7692 31.0957 14.7692 30.7692V27.0769C14.7692 26.7505 14.8989 26.4375 15.1297 26.2066C15.3605 25.9758 15.6736 25.8462 16 25.8462V25.8462ZM9.03754 22.9625C9.26827 23.1933 9.39789 23.5063 9.39789 23.8326C9.39789 24.159 9.26827 24.472 9.03754 24.7028L6.42708 27.3132C6.19495 27.5374 5.88406 27.6615 5.56135 27.6587C5.23865 27.6559 4.92996 27.5264 4.70176 27.2982C4.47357 27.07 4.34413 26.7614 4.34132 26.4386C4.33852 26.1159 4.46257 25.805 4.68677 25.5729L7.296 22.9625C7.41031 22.848 7.54605 22.7572 7.69546 22.6953C7.84487 22.6334 8.00503 22.6015 8.16677 22.6015C8.32851 22.6015 8.48867 22.6334 8.63808 22.6953C8.78749 22.7572 8.92323 22.848 9.03754 22.9625V22.9625ZM24.7028 22.9625L27.3132 25.5729C27.5374 25.805 27.6615 26.1159 27.6587 26.4386C27.6559 26.7614 27.5264 27.07 27.2982 27.2982C27.07 27.5264 26.7614 27.6559 26.4386 27.6587C26.1159 27.6615 25.805 27.5374 25.5729 27.3132L22.9625 24.704C22.7315 24.4732 22.6017 24.1602 22.6016 23.8337C22.6015 23.5072 22.7311 23.194 22.9618 22.9631C23.1926 22.7321 23.5057 22.6023 23.8322 22.6022C24.1587 22.6021 24.4718 22.7317 24.7028 22.9625ZM16 9.84615C17.6321 9.84615 19.1974 10.4945 20.3514 11.6486C21.5055 12.8026 22.1538 14.3679 22.1538 16C22.1538 17.6321 21.5055 19.1974 20.3514 20.3514C19.1974 21.5055 17.6321 22.1538 16 22.1538C14.3679 22.1538 12.8026 21.5055 11.6486 20.3514C10.4945 19.1974 9.84615 17.6321 9.84615 16C9.84615 14.3679 10.4945 12.8026 11.6486 11.6486C12.8026 10.4945 14.3679 9.84615 16 9.84615V9.84615ZM30.7692 14.7692C31.0957 14.7692 31.4087 14.8989 31.6395 15.1297C31.8703 15.3605 32 15.6736 32 16C32 16.3264 31.8703 16.6395 31.6395 16.8703C31.4087 17.1011 31.0957 17.2308 30.7692 17.2308H27.0769C26.7505 17.2308 26.4375 17.1011 26.2066 16.8703C25.9758 16.6395 25.8462 16.3264 25.8462 16C25.8462 15.6736 25.9758 15.3605 26.2066 15.1297C26.4375 14.8989 26.7505 14.7692 27.0769 14.7692H30.7692ZM4.92308 14.7692C5.2495 14.7692 5.56255 14.8989 5.79336 15.1297C6.02418 15.3605 6.15385 15.6736 6.15385 16C6.15385 16.3264 6.02418 16.6395 5.79336 16.8703C5.56255 17.1011 5.2495 17.2308 4.92308 17.2308H1.23077C0.904349 17.2308 0.591298 17.1011 0.360484 16.8703C0.12967 16.6395 0 16.3264 0 16C0 15.6736 0.12967 15.3605 0.360484 15.1297C0.591298 14.8989 0.904349 14.7692 1.23077 14.7692H4.92308ZM27.3132 4.68677C27.544 4.91757 27.6736 5.23057 27.6736 5.55692C27.6736 5.88328 27.544 6.19627 27.3132 6.42708L24.704 9.03754C24.4732 9.26848 24.1602 9.39829 23.8337 9.3984C23.5072 9.39852 23.194 9.26893 22.9631 9.03815C22.7321 8.80738 22.6023 8.49431 22.6022 8.16782C22.6021 7.84133 22.7317 7.52817 22.9625 7.29723L25.5729 4.68677C25.8037 4.45604 26.1167 4.32642 26.4431 4.32642C26.7694 4.32642 27.0824 4.45604 27.3132 4.68677V4.68677ZM6.42708 4.68677L9.03754 7.296C9.26864 7.52662 9.39867 7.83959 9.39902 8.16608C9.39937 8.49257 9.27 8.80582 9.03939 9.03692C8.80877 9.26803 8.49579 9.39806 8.16931 9.3984C7.84282 9.39875 7.52957 9.26939 7.29846 9.03877L4.68677 6.42708C4.46257 6.19495 4.33852 5.88406 4.34132 5.56135C4.34413 5.23865 4.47357 4.92996 4.70176 4.70176C4.92996 4.47357 5.23865 4.34413 5.56135 4.34132C5.88406 4.33852 6.19495 4.46257 6.42708 4.68677V4.68677ZM16 0C16.3264 0 16.6395 0.12967 16.8703 0.360484C17.1011 0.591298 17.2308 0.904349 17.2308 1.23077V4.92308C17.2308 5.2495 17.1011 5.56255 16.8703 5.79336C16.6395 6.02418 16.3264 6.15385 16 6.15385C15.6736 6.15385 15.3605 6.02418 15.1297 5.79336C14.8989 5.56255 14.7692 5.2495 14.7692 4.92308V1.23077C14.7692 0.904349 14.8989 0.591298 15.1297 0.360484C15.3605 0.12967 15.6736 0 16 0V0Z" fill="white"/>
</svg>
